<svg width="400" height="350" viewBox="0 0 400 350" fill="none" xmlns="http://www.w3.org/2000/svg">
  <rect width="400" height="350" fill="#FFF8E9"/>
  <rect x="50" y="50" width="300" height="250" rx="10" fill="#4CAF50" fill-opacity="0.1"/>
  
  <!-- Group of people -->
  <!-- Person 1 (left) -->
  <circle cx="130" cy="150" r="35" fill="#FF8A3D" fill-opacity="0.3"/>
  <path d="M130 115C118.95 115 110 123.95 110 135C110 146.05 118.95 155 130 155C141.05 155 150 146.05 150 135C150 123.95 141.05 115 130 115Z" fill="#FF8A3D"/>
  <path d="M130 165C112.5 165 100 171.5 100 180V190H160V180C160 171.5 147.5 165 130 165Z" fill="#FF8A3D"/>
  
  <!-- Person 2 (middle) -->
  <circle cx="200" cy="140" r="35" fill="#4CAF50" fill-opacity="0.3"/>
  <path d="M200 105C188.95 105 180 113.95 180 125C180 136.05 188.95 145 200 145C211.05 145 220 136.05 220 125C220 113.95 211.05 105 200 105Z" fill="#4CAF50"/>
  <path d="M200 155C182.5 155 170 161.5 170 170V180H230V170C230 161.5 217.5 155 200 155Z" fill="#4CAF50"/>
  
  <!-- Person 3 (right) -->
  <circle cx="270" cy="150" r="35" fill="#FF8A3D" fill-opacity="0.3"/>
  <path d="M270 115C258.95 115 250 123.95 250 135C250 146.05 258.95 155 270 155C281.05 155 290 146.05 290 135C290 123.95 281.05 115 270 115Z" fill="#FF8A3D"/>
  <path d="M270 165C252.5 165 240 171.5 240 180V190H300V180C300 171.5 287.5 165 270 165Z" fill="#FF8A3D"/>
  
  <!-- Laptop -->
  <rect x="170" y="200" width="60" height="40" rx="5" fill="#333333"/>
  <rect x="175" y="205" width="50" height="30" rx="2" fill="#4CAF50" fill-opacity="0.5"/>
  <rect x="160" y="240" width="80" height="10" rx="5" fill="#333333"/>
  
  <!-- Chat bubbles -->
  <circle cx="120" cy="100" r="15" fill="white" stroke="#FF8A3D" stroke-width="2"/>
  <circle cx="280" cy="100" r="15" fill="white" stroke="#FF8A3D" stroke-width="2"/>
  <circle cx="200" cy="80" r="15" fill="white" stroke="#4CAF50" stroke-width="2"/>
  
  <!-- Decorative elements -->
  <circle cx="70" cy="70" r="20" fill="#FF8A3D" fill-opacity="0.3"/>
  <circle cx="330" cy="270" r="30" fill="#4CAF50" fill-opacity="0.3"/>
  <rect x="300" y="80" width="40" height="40" rx="5" fill="#FF8A3D" fill-opacity="0.5"/>
</svg>
