<svg width="300" height="300" viewBox="0 0 300 300" fill="none" xmlns="http://www.w3.org/2000/svg">
  <rect width="300" height="300" fill="#FFF8E9"/>
  <circle cx="150" cy="150" r="120" fill="#FF8A3D" fill-opacity="0.1"/>
  <circle cx="150" cy="110" r="50" fill="#4CAF50" fill-opacity="0.2"/>
  <path d="M150 70C128.95 70 112 86.95 112 108C112 129.05 128.95 146 150 146C171.05 146 188 129.05 188 108C188 86.95 171.05 70 150 70Z" fill="#4CAF50"/>
  <path d="M150 160C117.5 160 90 173.5 90 190V210H210V190C210 173.5 182.5 160 150 160Z" fill="#4CAF50"/>
  <rect x="90" y="220" width="120" height="20" rx="10" fill="#FF8A3D"/>
  <circle cx="60" cy="60" r="20" fill="#FF8A3D" fill-opacity="0.3"/>
  <circle cx="240" cy="240" r="30" fill="#4CAF50" fill-opacity="0.3"/>
  <rect x="220" y="80" width="40" height="40" rx="20" fill="#FF8A3D" fill-opacity="0.5"/>
  <path d="M240 90C234.48 90 230 94.48 230 100C230 105.52 234.48 110 240 110C245.52 110 250 105.52 250 100C250 94.48 245.52 90 240 90ZM245 102.5H235V97.5H245V102.5Z" fill="#FF8A3D"/>
</svg>
