<svg xmlns="http://www.w3.org/2000/svg" viewBox="0 0 48 48">
  <path fill="#EA4335" d="M24 9.5c3.54 0 6.71 1.22 9.21 3.6l6.85-6.85C35.9 2.38 30.47 0 24 0 14.62 0 6.51 5.38 2.56 13.22l7.98 6.19C12.43 13.72 17.74 9.5 24 9.5z"/>
  <path fill="#4285F4" d="M46.5 24.5c0-1.63-.15-3.2-.43-4.72H24v9.04h12.67c-.55 2.95-2.19 5.45-4.67 7.13l7.54 5.85c4.4-4.06 6.96-10.04 6.96-17.3z"/>
  <path fill="#FBBC05" d="M10.53 28.59c-.48-1.45-.76-2.99-.76-4.59s.27-3.14.76-4.59l-7.98-6.19C.92 16.64 0 20.23 0 24c0 3.77.92 7.36 2.56 10.78l7.97-6.19z"/>
  <path fill="#34A853" d="M24 48c6.48 0 11.93-2.14 15.9-5.81l-7.54-5.85c-2.09 1.41-4.77 2.25-8.36 2.25-6.26 0-11.57-4.22-13.47-9.91l-7.98 6.19C6.51 42.62 14.62 48 24 48z"/>
</svg>
