<svg width="500" height="400" viewBox="0 0 500 400" fill="none" xmlns="http://www.w3.org/2000/svg">
  <rect width="500" height="400" fill="#FFF8E9"/>
  <rect x="170" y="60" width="240" height="280" rx="20" fill="#FFA94D" fill-opacity="0.2"/>
  <rect x="200" y="90" width="180" height="220" rx="10" fill="white"/>
  <circle cx="240" cy="150" r="60" fill="#4CAF50" fill-opacity="0.2"/>
  <path d="M240 110C218.95 110 202 126.95 202 148C202 169.05 218.95 186 240 186C261.05 186 278 169.05 278 148C278 126.95 261.05 110 240 110ZM252 166H228V154H252V166ZM252 142H228V130H252V142Z" fill="#4CAF50"/>
  <rect x="220" y="200" width="140" height="10" rx="5" fill="#E0E0E0"/>
  <rect x="220" y="220" width="140" height="10" rx="5" fill="#E0E0E0"/>
  <rect x="220" y="240" width="140" height="10" rx="5" fill="#E0E0E0"/>
  <rect x="220" y="260" width="100" height="10" rx="5" fill="#E0E0E0"/>
  <circle cx="150" cy="200" r="80" fill="#FF8A3D" fill-opacity="0.2"/>
  <path d="M150 140C123.49 140 102 161.49 102 188C102 214.51 123.49 236 150 236C176.51 236 198 214.51 198 188C198 161.49 176.51 140 150 140ZM170 208H130V188H170V208ZM170 178H130V158H170V178Z" fill="#FF8A3D"/>
  <rect x="320" y="40" width="60" height="60" rx="10" fill="#4CAF50"/>
  <text x="340" y="80" font-family="Arial" font-size="30" font-weight="bold" fill="white">汉</text>
</svg>
