<svg width="400" height="350" viewBox="0 0 400 350" fill="none" xmlns="http://www.w3.org/2000/svg">
  <rect width="400" height="350" fill="#FFF8E9"/>
  <rect x="50" y="50" width="300" height="250" rx="10" fill="#4CAF50" fill-opacity="0.1"/>
  <circle cx="200" cy="150" r="100" fill="#FF8A3D" fill-opacity="0.2"/>
  
  <!-- Teacher figure -->
  <circle cx="150" cy="120" r="40" fill="#4CAF50" fill-opacity="0.3"/>
  <path d="M150 80C128.95 80 112 96.95 112 118C112 139.05 128.95 156 150 156C171.05 156 188 139.05 188 118C188 96.95 171.05 80 150 80Z" fill="#4CAF50"/>
  <path d="M150 170C117.5 170 90 183.5 90 200V220H210V200C210 183.5 182.5 170 150 170Z" fill="#4CAF50"/>
  
  <!-- Student figure -->
  <circle cx="250" cy="180" r="30" fill="#FF8A3D" fill-opacity="0.3"/>
  <path d="M250 150C238.95 150 230 158.95 230 170C230 181.05 238.95 190 250 190C261.05 190 270 181.05 270 170C270 158.95 261.05 150 250 150Z" fill="#FF8A3D"/>
  <path d="M250 200C232.5 200 220 206.5 220 215V225H280V215C280 206.5 267.5 200 250 200Z" fill="#FF8A3D"/>
  
  <!-- Speech bubble -->
  <path d="M180 130C180 121.716 186.716 115 195 115H235C243.284 115 250 121.716 250 130V150C250 158.284 243.284 165 235 165H195C186.716 165 180 158.284 180 150V130Z" fill="white" stroke="#4CAF50" stroke-width="2"/>
  <path d="M180 140L170 155L180 150" fill="white"/>
  <path d="M180 140L170 155L180 150" stroke="#4CAF50" stroke-width="2"/>
  
  <!-- Content in speech bubble -->
  <rect x="190" y="125" width="50" height="5" rx="2.5" fill="#4CAF50"/>
  <rect x="190" y="135" width="40" height="5" rx="2.5" fill="#4CAF50"/>
  <rect x="190" y="145" width="45" height="5" rx="2.5" fill="#4CAF50"/>
  
  <!-- Decorative elements -->
  <circle cx="70" cy="70" r="20" fill="#FF8A3D" fill-opacity="0.3"/>
  <circle cx="330" cy="270" r="30" fill="#4CAF50" fill-opacity="0.3"/>
  <rect x="300" y="80" width="40" height="40" rx="5" fill="#FF8A3D" fill-opacity="0.5"/>
</svg>
